<?xml version="1.0" standalone="no"?><!DOCTYPE svg PUBLIC "-//W3C//DTD SVG 1.1//EN" "http://www.w3.org/Graphics/SVG/1.1/DTD/svg11.dtd"><svg class="icon" width="200px" height="200.00px" viewBox="0 0 1024 1024" version="1.1" xmlns="http://www.w3.org/2000/svg"><path fill="#ffffff" d="M653.924 64H158.046l-30.779 30.779v834.443L158.046 960h704.489l34.198-30.779V306.809l-10.26-23.939-212.03-212.03L653.924 64z m-13.68 61.557l191.511 194.931H640.244V125.557z m-64.977 0v225.71l30.779 30.779h225.71v512.977H188.824V125.557h386.443zM438.473 727.45l-44.458 44.458-140.213-140.213v-44.458l140.214-140.214 44.458 44.458-116.276 119.695L438.473 727.45z m239.39-116.274L561.588 727.45l44.458 44.458L746.26 631.695v-44.458L606.046 447.023l-44.458 47.878 116.275 116.275z" /></svg>