<?xml version="1.0" standalone="no"?><!DOCTYPE svg PUBLIC "-//W3C//DTD SVG 1.1//EN" "http://www.w3.org/Graphics/SVG/1.1/DTD/svg11.dtd"><svg class="icon" width="200px" height="200.00px" viewBox="0 0 1024 1024" version="1.1" xmlns="http://www.w3.org/2000/svg"><path fill="#ffffff" d="M653.924 64H158.046l-30.779 30.779v834.443L158.046 960h704.489l34.198-30.779V306.809l-10.26-23.939-212.03-212.03L653.924 64z m-13.68 61.557l191.511 194.931v574.534H188.824V125.557h451.42zM284.58 385.466c0-41.038 7.98-72.957 23.939-95.756 15.959-22.799 38.758-34.198 68.397-34.198 56.997 0 85.496 42.178 85.496 126.534 0 41.038-7.98 72.957-23.939 95.756C422.514 500.601 399.715 512 370.076 512c-56.997 0-85.496-42.178-85.496-126.534z m54.718 0c0 54.718 11.4 82.076 34.198 82.076s34.198-28.499 34.198-85.496-11.4-85.496-34.198-85.496-34.198 29.638-34.198 88.916z m205.191 78.656h51.298V310.229l-54.718 10.26v-44.458l106.015-20.519v208.611h51.298v41.038H544.489v-41.039z m-88.916 321.466h-47.878V576.977L298.26 597.496v44.458l54.718-10.26v153.893H301.68v41.038h153.893v-41.037z m68.396-82.077c0-43.318 7.98-76.377 23.939-99.176s38.758-34.198 68.397-34.198c56.997 0 85.496 42.178 85.496 126.534 0 43.318-7.41 75.807-22.229 97.466-14.819 21.659-37.048 32.489-66.687 32.489-59.277 0-88.916-41.038-88.916-123.115z m54.718 0c0 54.718 11.399 82.076 34.198 82.076s34.198-28.499 34.198-85.496-11.399-85.496-34.198-85.496-34.198 29.639-34.198 88.916z" /></svg>