<?xml version="1.0" standalone="no"?><!DOCTYPE svg PUBLIC "-//W3C//DTD SVG 1.1//EN" "http://www.w3.org/Graphics/SVG/1.1/DTD/svg11.dtd"><svg class="icon" width="200px" height="200.00px" viewBox="0 0 1024 1024" version="1.1" xmlns="http://www.w3.org/2000/svg"><path fill="#ffffff" d="M625.11 64c66.148 0 126.783 20.045 181.906 60.134s92.707 92.707 112.752 157.852c20.045 65.145 19.043 129.79-3.007 193.933s-61.136 115.257-117.262 153.342c-56.125 38.085-117.763 56.125-184.913 54.121-67.15-2.005-127.785-24.054-181.906-66.148L132.009 960l-42.094-36.081 300.671-345.772c-40.089-44.098-64.644-96.215-73.664-156.349-9.02-60.134-1.002-118.264 24.054-174.389s63.141-100.725 114.255-133.799S562.971 64 625.11 64z m0 565.262c46.103 0 88.197-11.526 126.282-34.577s68.653-54.121 91.705-93.208 34.577-81.682 34.577-127.785-11.526-88.698-34.577-127.785-53.62-69.655-91.705-91.705-80.179-33.074-126.282-33.074-88.698 11.025-127.785 33.074-70.157 52.617-93.208 91.705-34.577 81.682-34.577 127.785 11.526 88.698 34.577 127.785 54.121 69.656 93.208 91.705 81.682 33.074 127.785 33.074v3.006z" /></svg>